<?xml version="1.0" encoding="utf-8"?>
<svg viewBox="0 0 500 500" xmlns="http://www.w3.org/2000/svg">
  <g transform="matrix(0.032501, 0, 0, -0.033456, 76.245506, 576.974426)" fill="#000000" stroke="none" style="">
    <path d="M 7504.589 16294.235 C 7301.589 16275.235 7252.589 16270.235 7240.589 16265.235 C 7219.589 16257.235 7173.589 15864.235 7156.589 15547.235 L 7149.589 15418.235 L 7039.589 15391.235 C 6979.589 15376.235 6895.589 15350.235 6854.589 15333.235 C 6749.589 15290.235 6517.589 15179.235 6457.589 15142.235 C 6429.589 15125.235 6404.589 15111.235 6402.589 15111.235 C 6399.589 15111.235 6251.589 15231.235 6073.589 15377.235 C 5895.589 15523.235 5743.589 15645.235 5737.589 15648.235 C 5713.589 15658.235 5508.589 15484.235 5355.589 15325.235 C 5208.589 15173.235 5040.589 14963.235 5052.589 14948.235 C 5095.589 14891.235 5259.589 14689.235 5399.589 14521.235 C 5493.589 14408.235 5574.589 14310.235 5578.589 14303.235 C 5582.589 14295.235 5569.589 14265.235 5544.589 14225.235 C 5477.589 14119.235 5399.589 13954.235 5364.589 13846.235 C 5346.589 13791.235 5321.589 13714.235 5308.589 13674.235 C 5295.589 13635.235 5284.589 13596.235 5284.589 13588.235 C 5284.589 13577.235 5265.589 13572.235 5212.589 13567.235 C 4822.589 13531.235 4447.589 13488.235 4437.589 13477.235 C 4406.589 13447.235 4386.589 13045.235 4403.589 12828.235 C 4415.589 12677.235 4438.589 12513.235 4449.589 12503.235 C 4453.589 12498.235 4748.589 12469.235 5206.589 12426.235 L 5283.589 12419.235 L 5289.589 12378.235 C 5293.589 12355.235 5304.589 12316.235 5314.589 12291.235 C 5324.589 12266.235 5348.589 12194.235 5368.589 12130.235 C 5407.589 12009.235 5488.589 11837.235 5555.589 11737.235 C 5577.589 11704.235 5593.589 11672.235 5590.589 11664.235 C 5587.589 11657.235 5507.589 11558.235 5411.589 11444.235 C 5147.589 11128.235 5063.589 11021.235 5071.589 11008.235 C 5105.589 10948.235 5266.589 10759.235 5379.589 10645.235 C 5528.589 10495.235 5761.589 10301.235 5772.589 10317.235 C 5776.589 10323.235 5871.589 10403.235 5984.589 10496.235 C 6097.589 10589.235 6234.589 10703.235 6289.589 10750.235 C 6344.589 10798.235 6396.589 10842.235 6406.589 10849.235 C 6420.589 10860.235 6439.589 10853.235 6536.589 10798.235 C 6670.589 10722.235 6835.589 10654.235 6995.589 10611.235 C 7058.589 10594.235 7116.589 10576.235 7122.589 10572.235 C 7130.589 10567.235 7145.589 10463.235 7164.589 10270.235 C 7194.589 9977.235 7221.589 9746.235 7228.589 9725.235 C 7236.589 9704.235 7538.589 9688.235 7797.589 9694.235 C 8003.589 9699.235 8204.589 9718.235 8220.589 9733.235 C 8222.589 9736.235 8240.589 9913.235 8259.589 10127.235 C 8279.589 10341.235 8297.589 10531.235 8300.589 10549.235 C 8306.589 10587.235 8304.589 10586.235 8477.589 10637.235 C 8622.589 10680.235 8815.589 10765.235 8932.589 10838.235 C 8979.589 10868.235 9022.589 10890.235 9028.589 10887.235 C 9034.589 10885.235 9095.589 10835.235 9164.589 10776.235 C 9396.589 10576.235 9686.589 10350.235 9701.589 10355.235 C 9728.589 10366.235 9839.589 10451.235 9901.589 10508.235 C 10030.589 10628.235 10384.589 11029.235 10384.589 11055.235 C 10384.589 11058.235 10270.589 11196.235 10132.589 11362.235 C 9993.589 11527.235 9869.589 11675.235 9857.589 11690.235 L 9835.589 11717.235 L 9894.589 11831.235 C 9973.589 11982.235 10050.589 12175.235 10083.589 12302.235 L 10109.589 12406.235 L 10294.589 12423.235 C 10396.589 12432.235 10588.589 12450.235 10721.589 12462.235 L 10963.589 12485.235 L 10969.589 12511.235 C 10982.589 12574.235 10995.589 12730.235 11000.589 12891.235 C 11009.589 13128.235 10983.589 13473.235 10956.589 13490.235 C 10949.589 13494.235 10759.589 13514.235 10532.589 13535.235 C 10305.589 13556.235 10116.589 13575.235 10112.589 13577.235 C 10108.589 13579.235 10100.589 13607.235 10094.589 13639.235 C 10067.589 13776.235 9979.589 14003.235 9888.589 14172.235 L 9823.589 14293.235 L 9861.589 14339.235 C 9882.589 14365.235 10000.589 14510.235 10125.589 14662.235 C 10249.589 14814.235 10354.589 14943.235 10358.589 14950.235 C 10366.589 14962.235 10287.589 15063.235 10155.589 15210.235 C 10009.589 15372.235 9674.589 15661.235 9651.589 15644.235 C 9568.589 15581.235 9269.589 15339.235 9164.589 15250.235 C 9089.589 15188.235 9022.589 15131.235 9013.589 15124.235 C 9001.589 15114.235 8959.589 15131.235 8784.589 15220.235 C 8631.589 15296.235 8537.589 15336.235 8459.589 15359.235 C 8399.589 15377.235 8339.589 15391.235 8327.589 15391.235 C 8302.589 15391.235 8302.589 15388.235 8278.589 15646.235 C 8261.589 15837.235 8214.589 16254.235 8210.589 16258.235 C 8202.589 16266.235 8084.589 16281.235 7958.589 16290.235 C 7828.589 16300.235 7586.589 16302.235 7504.589 16294.235 Z M 7959.589 14200.235 C 8176.589 14164.235 8386.589 14049.235 8569.589 13867.235 C 8748.589 13689.235 8858.589 13493.235 8904.589 13266.235 C 9008.589 12765.235 8805.589 12268.235 8384.589 11990.235 C 8192.589 11863.235 8006.589 11804.235 7768.589 11794.235 C 7546.589 11784.235 7380.589 11818.235 7189.589 11911.235 C 6950.589 12028.235 6770.589 12204.235 6643.589 12445.235 C 6547.589 12628.235 6509.589 12788.235 6510.589 13016.235 C 6511.589 13297.235 6587.589 13523.235 6754.589 13739.235 C 6966.589 14014.235 7254.589 14185.235 7549.589 14210.235 C 7660.589 14219.235 7878.589 14214.235 7959.589 14200.235 Z" style="fill: rgba(0, 0, 0, 0.74);"/>
    <path d="M 7504.589 14022.235 C 7139.589 13942.235 6841.589 13663.235 6727.589 13295.235 C 6702.589 13212.235 6700.589 13194.235 6700.589 13016.235 C 6699.589 12809.235 6704.589 12778.235 6765.589 12620.235 C 6830.589 12451.235 7000.589 12242.235 7163.589 12132.235 C 7253.589 12071.235 7377.589 12015.235 7480.589 11989.235 C 7608.589 11957.235 7852.589 11957.235 7970.589 11989.235 C 8110.589 12027.235 8211.589 12075.235 8324.589 12159.235 C 8644.589 12397.235 8797.589 12742.235 8754.589 13129.235 C 8727.589 13379.235 8630.589 13577.235 8453.589 13746.235 C 8319.589 13874.235 8179.589 13956.235 8005.589 14008.235 C 7886.589 14043.235 7634.589 14051.235 7504.589 14022.235 Z M 7886.589 13766.235 C 8114.589 13718.235 8326.589 13557.235 8423.589 13359.235 C 8440.589 13324.235 8464.589 13258.235 8475.589 13212.235 C 8493.589 13139.235 8496.589 13107.235 8492.589 12977.235 C 8488.589 12845.235 8484.589 12816.235 8458.589 12741.235 C 8382.589 12514.235 8160.589 12312.235 7912.589 12245.235 C 7836.589 12224.235 7622.589 12221.235 7554.589 12240.235 C 7407.589 12280.235 7287.589 12350.235 7180.589 12457.235 C 7135.589 12501.235 7084.589 12563.235 7065.589 12594.235 C 6843.589 12967.235 6960.589 13456.235 7324.589 13672.235 C 7398.589 13715.235 7510.589 13759.235 7584.589 13771.235 C 7659.589 13784.235 7815.589 13781.235 7886.589 13766.235 Z"/>
    <path d="M 3720.589 11949.235 C 3645.589 11758.235 3558.589 11521.235 3469.589 11269.235 L 3371.589 10991.235 L 3249.589 10991.235 C 3018.589 10991.235 2666.589 10944.235 2461.589 10885.235 C 2391.589 10865.235 2332.589 10850.235 2330.589 10852.235 C 2329.589 10854.235 2294.589 10903.235 2253.589 10961.235 C 2113.589 11161.235 1683.589 11751.235 1678.589 11751.235 C 1668.589 11751.235 1497.589 11683.235 1459.589 11663.235 C 1437.589 11652.235 1385.589 11627.235 1344.589 11607.235 C 1303.589 11588.235 1224.589 11546.235 1169.589 11513.235 C 1114.589 11481.235 1021.589 11426.235 962.589 11391.235 C 857.589 11329.235 712.589 11225.235 620.589 11146.235 L 574.589 11105.235 L 694.589 10846.235 C 761.589 10703.235 865.589 10479.235 926.589 10348.235 L 1037.589 10110.235 L 961.589 10033.235 C 765.589 9833.235 528.589 9522.235 448.589 9358.235 C 432.589 9326.235 416.589 9301.235 411.589 9301.235 C 407.589 9301.235 265.589 9325.235 96.589 9355.235 C -232.411 9413.235 -676.411 9484.235 -680.411 9479.235 C -688.411 9471.235 -783.411 9231.235 -820.411 9126.235 C -871.411 8980.235 -955.411 8568.235 -990.411 8286.235 L -996.411 8236.235 L -488.411 8041.235 L 19.589 7846.235 L 21.589 7751.235 C 25.589 7580.235 44.589 7370.235 65.589 7262.235 C 76.589 7204.235 92.589 7121.235 100.589 7079.235 C 108.589 7036.235 126.589 6963.235 139.589 6916.235 C 153.589 6869.235 164.589 6824.235 164.589 6816.235 C 164.589 6809.235 71.589 6736.235 -42.411 6655.235 C -157.411 6574.235 -355.411 6431.235 -483.411 6337.235 C -691.411 6185.235 -715.411 6164.235 -710.411 6144.235 C -688.411 6056.235 -494.411 5680.235 -364.411 5472.235 C -290.411 5356.235 -141.411 5142.235 -100.411 5094.235 L -70.411 5060.235 L 104.589 5141.235 C 276.589 5222.235 840.589 5480.235 900.589 5506.235 L 930.589 5520.235 L 1065.589 5395.235 C 1234.589 5237.235 1318.589 5174.235 1547.589 5034.235 C 1685.589 4950.235 1729.589 4918.235 1727.589 4904.235 C 1726.589 4894.235 1705.589 4762.235 1680.589 4611.235 C 1636.589 4345.235 1564.589 3863.235 1564.589 3838.235 C 1564.589 3831.235 1579.589 3820.235 1597.589 3812.235 C 1822.589 3722.235 2023.589 3660.235 2312.589 3592.235 C 2505.589 3546.235 2785.589 3498.235 2795.589 3509.235 C 2813.589 3529.235 3056.589 4168.235 3150.589 4438.235 L 3188.589 4551.235 L 3340.589 4551.235 C 3602.589 4551.235 3787.589 4577.235 4052.589 4653.235 C 4174.589 4687.235 4198.589 4691.235 4209.589 4680.235 C 4216.589 4672.235 4362.589 4468.235 4534.589 4226.235 C 4706.589 3984.235 4848.589 3784.235 4850.589 3783.235 C 4853.589 3779.235 4941.589 3820.235 5211.589 3953.235 C 5323.589 4008.235 5454.589 4083.235 5556.589 4150.235 C 5701.589 4246.235 5887.589 4383.235 5937.589 4431.235 C 5955.589 4447.235 5952.589 4456.235 5856.589 4672.235 C 5801.589 4795.235 5697.589 5022.235 5626.589 5176.235 L 5496.589 5455.235 L 5613.589 5581.235 C 5773.589 5751.235 5918.589 5949.235 6018.589 6133.235 C 6043.589 6181.235 6068.589 6222.235 6072.589 6224.235 C 6076.589 6226.235 6167.589 6213.235 6274.589 6195.235 C 6833.589 6101.235 7157.589 6050.235 7168.589 6054.235 C 7190.589 6063.235 7346.589 6507.235 7389.589 6681.235 C 7397.589 6717.235 7409.589 6756.235 7414.589 6768.235 C 7423.589 6789.235 7487.589 7150.235 7498.589 7243.235 L 7504.589 7290.235 L 7456.589 7311.235 C 7394.589 7339.235 6976.589 7497.235 6692.589 7601.235 L 6464.589 7684.235 L 6464.589 7840.235 C 6464.589 8019.235 6454.589 8121.235 6423.589 8288.235 C 6405.589 8387.235 6356.589 8602.235 6338.589 8663.235 C 6334.589 8675.235 6382.589 8714.235 6526.589 8817.235 C 6743.589 8972.235 7221.589 9328.235 7229.589 9342.235 C 7236.589 9353.235 7168.589 9513.235 7086.589 9676.235 C 6970.589 9909.235 6820.589 10144.235 6662.589 10343.235 L 6585.589 10440.235 L 6452.589 10382.235 C 6268.589 10301.235 5972.589 10165.235 5765.589 10065.235 L 5592.589 9981.235 L 5458.589 10108.235 C 5316.589 10242.235 5144.589 10376.235 5029.589 10444.235 C 4969.589 10479.235 4846.589 10560.235 4821.589 10581.235 C 4817.589 10585.235 4832.589 10704.235 4854.589 10847.235 C 4966.589 11561.235 4985.589 11683.235 4982.589 11686.235 C 4980.589 11687.235 4909.589 11715.235 4824.589 11748.235 C 4644.589 11818.235 4425.589 11891.235 4393.589 11891.235 C 4381.589 11891.235 4346.589 11900.235 4315.589 11910.235 C 4235.589 11938.235 3827.589 12020.235 3769.589 12021.235 C 3753.589 12021.235 3743.589 12005.235 3720.589 11949.235 Z M 3539.589 9326.235 C 3815.589 9277.235 4103.589 9142.235 4311.589 8963.235 C 4557.589 8751.235 4771.589 8364.235 4829.589 8027.235 C 4851.589 7900.235 4849.589 7680.235 4825.589 7539.235 C 4781.589 7284.235 4671.589 7014.235 4540.589 6841.235 C 4309.589 6534.235 3909.589 6293.235 3520.589 6226.235 C 3406.589 6207.235 3186.589 6207.235 3066.589 6226.235 C 2838.589 6263.235 2580.589 6356.235 2420.589 6459.235 C 2064.589 6689.235 1800.589 7084.235 1718.589 7511.235 C 1694.589 7638.235 1694.589 7869.235 1718.589 8006.235 C 1808.589 8515.235 2047.589 8868.235 2479.589 9132.235 C 2593.589 9202.235 2772.589 9274.235 2909.589 9307.235 C 3102.589 9353.235 3348.589 9360.235 3539.589 9326.235 Z" style="fill: rgba(0, 0, 0, 0.75);"/>
    <path d="M 3179.589 9124.235 C 2964.589 9099.235 2842.589 9062.235 2664.589 8970.235 C 2314.589 8789.235 2105.589 8526.235 1999.589 8132.235 C 1949.589 7948.235 1941.589 7891.235 1940.589 7741.235 C 1940.589 7599.235 1956.589 7489.235 1995.589 7370.235 C 2019.589 7296.235 2104.589 7111.235 2114.589 7111.235 C 2117.589 7111.235 2148.589 7069.235 2181.589 7019.235 C 2329.589 6796.235 2536.589 6630.235 2790.589 6531.235 C 3296.589 6333.235 3827.589 6437.235 4227.589 6811.235 C 4407.589 6979.235 4555.589 7247.235 4605.589 7493.235 C 4674.589 7836.235 4617.589 8157.235 4432.589 8467.235 C 4233.589 8802.235 3973.589 8991.235 3574.589 9090.235 C 3440.589 9123.235 3282.589 9137.235 3179.589 9124.235 Z M 3524.589 8750.235 C 3836.589 8672.235 4056.589 8489.235 4205.589 8185.235 C 4273.589 8044.235 4288.589 7971.235 4288.589 7776.235 C 4288.589 7577.235 4273.589 7506.235 4198.589 7352.235 C 4143.589 7237.235 4086.589 7156.235 4003.589 7073.235 C 3713.589 6788.235 3376.589 6705.235 2979.589 6821.235 C 2721.589 6896.235 2517.589 7074.235 2384.589 7340.235 C 2257.589 7594.235 2245.589 7913.235 2351.589 8156.235 C 2456.589 8392.235 2640.589 8580.235 2876.589 8691.235 C 3093.589 8793.235 3284.589 8810.235 3524.589 8750.235 Z"/>
  </g>
</svg>